<?xml version="1.0" encoding="utf-8"?>
<!-- Generator: Adobe Illustrator 16.0.0, SVG Export Plug-In . SVG Version: 6.00 Build 0)  -->
<!DOCTYPE svg PUBLIC "-//W3C//DTD SVG 1.1//EN" "http://www.w3.org/Graphics/SVG/1.1/DTD/svg11.dtd">
<svg version="1.1" id="Layer_1" xmlns="http://www.w3.org/2000/svg" xmlns:xlink="http://www.w3.org/1999/xlink" x="0px" y="0px"
	 width="160.808px" height="210.109px" viewBox="0 0 160.808 210.109" enable-background="new 0 0 160.808 210.109"
	 xml:space="preserve">
<g>
	<path fill="#5D5E5E" d="M160.808,146.018c0,12.525-10.248,22.773-22.773,22.773H-24.919c-12.525,0-22.773-10.248-22.773-22.773
		v-93.66c0-12.525,10.248-22.773,22.773-22.773h162.953c12.525,0,22.773,10.248,22.773,22.773V146.018z"/>
</g>
<path fill-rule="evenodd" clip-rule="evenodd" fill="#F1F2F2" d="M131.424,60.774c0,5.31,0,10.51,0,15.839
	c-30.876,0-61.717,0-92.665,0c0-5.243,0-10.481,0-15.839C69.576,60.774,100.419,60.774,131.424,60.774z"/>
<path fill-rule="evenodd" clip-rule="evenodd" fill="#F1F2F2" d="M131.426,89.092c0,5.326,0,10.526,0,15.849
	c-30.887,0-61.728,0-92.672,0c0-5.251,0-10.491,0-15.849C69.584,89.092,100.426,89.092,131.426,89.092z"/>
<path fill-rule="evenodd" clip-rule="evenodd" fill="#F1F2F2" d="M38.763,118.375c30.88,0,61.68,0,92.594,0
	c0,5.28,0,10.519,0,15.882c-30.798,0-61.64,0-92.594,0C38.763,129.045,38.763,123.807,38.763,118.375z"/>
<path fill="#5D5E5E" d="M0,0v30.585h30.584C13.763,30.585,0,16.822,0,0z"/>
<path fill="#5D5E5E" d="M0,198.375V167.79h30.584C13.763,167.79,0,181.552,0,198.375z"/>
</svg>
